<svg width="24" height="24" viewBox="0 0 24 24" fill="none" xmlns="http://www.w3.org/2000/svg">
<g clip-path="url(#clip0_123_1100)">
<circle cx="12" cy="12" r="12" fill="#14279B"/>
<path d="M8.41611 17V15.4488L12.0404 12.093C12.3486 11.7947 12.6072 11.5263 12.816 11.2876C13.0281 11.049 13.1888 10.8153 13.2982 10.5866C13.4076 10.3546 13.4623 10.1044 13.4623 9.83592C13.4623 9.53762 13.3943 9.28075 13.2584 9.06532C13.1225 8.84657 12.9369 8.67919 12.7016 8.56319C12.4663 8.44387 12.1995 8.38421 11.9012 8.38421C11.5896 8.38421 11.3179 8.44718 11.0858 8.57313C10.8538 8.69908 10.6749 8.87971 10.5489 9.11503C10.423 9.35036 10.36 9.63042 10.36 9.95523H8.31667C8.31667 9.28904 8.46748 8.71068 8.76909 8.22015C9.0707 7.72962 9.49328 7.35012 10.0368 7.08165C10.5804 6.81319 11.2068 6.67896 11.9161 6.67896C12.6453 6.67896 13.28 6.80822 13.8202 7.06674C14.3638 7.32195 14.7864 7.67659 15.088 8.13066C15.3896 8.58473 15.5404 9.10509 15.5404 9.69174C15.5404 10.0762 15.4642 10.4557 15.3117 10.8302C15.1626 11.2048 14.8957 11.6207 14.5113 12.0781C14.1268 12.5322 13.5849 13.0774 12.8856 13.7138L11.3991 15.1704V15.24H15.6746V17H8.41611Z" fill="white"/>
</g>
<defs>
<clipPath id="clip0_123_1100">
<rect width="24" height="24" fill="white"/>
</clipPath>
</defs>
</svg>
