<svg width="40" height="40" viewBox="0 0 40 40" fill="none" xmlns="http://www.w3.org/2000/svg">
<path fill-rule="evenodd" clip-rule="evenodd" d="M9.99999 14.1666C9.99999 11.8654 11.8655 9.99992 14.1667 9.99992C16.4678 9.99992 18.3333 11.8654 18.3333 14.1666C18.3333 16.4678 16.4678 18.3333 14.1667 18.3333C11.8655 18.3333 9.99999 16.4678 9.99999 14.1666ZM14.1667 13.3333C13.7064 13.3333 13.3333 13.7063 13.3333 14.1666C13.3333 14.6268 13.7064 14.9999 14.1667 14.9999C14.6269 14.9999 15 14.6268 15 14.1666C15 13.7063 14.6269 13.3333 14.1667 13.3333Z" fill="#2D3648"/>
<path fill-rule="evenodd" clip-rule="evenodd" d="M3.33333 8.33325C3.33333 5.57183 5.5719 3.33325 8.33333 3.33325H31.6667C34.4281 3.33325 36.6667 5.57183 36.6667 8.33325V31.6666C36.6667 34.428 34.4281 36.6666 31.6667 36.6666H8.33333C5.5719 36.6666 3.33333 34.428 3.33333 31.6666V8.33325ZM8.33333 6.66659C7.41285 6.66659 6.66666 7.41278 6.66666 8.33325V31.6666C6.66666 32.3813 7.11654 32.9909 7.74857 33.2278L25.4883 15.4881C26.1391 14.8372 27.1944 14.8372 27.8453 15.4881L33.3333 20.9761V8.33325C33.3333 7.41278 32.5871 6.66659 31.6667 6.66659H8.33333ZM33.3333 25.6901L26.6668 19.0236L12.3571 33.3333H31.6667C32.5871 33.3333 33.3333 32.5871 33.3333 31.6666V25.6901Z" fill="#2D3648"/>
</svg>
