<svg width="67" height="67" viewBox="0 0 67 67" fill="none" xmlns="http://www.w3.org/2000/svg">
<rect width="67" height="67" rx="5" fill="#EDF0F7"/>
<path fill-rule="evenodd" clip-rule="evenodd" d="M23.9999 27.1667C23.9999 24.8655 25.8654 23 28.1666 23C30.4678 23 32.3333 24.8655 32.3333 27.1667C32.3333 29.4679 30.4678 31.3334 28.1666 31.3334C25.8654 31.3334 23.9999 29.4679 23.9999 27.1667ZM28.1666 26.3334C27.7063 26.3334 27.3333 26.7065 27.3333 27.1667C27.3333 27.6269 27.7063 28 28.1666 28C28.6268 28 28.9999 27.6269 28.9999 27.1667C28.9999 26.7065 28.6268 26.3334 28.1666 26.3334Z" fill="#2D3648"/>
<path fill-rule="evenodd" clip-rule="evenodd" d="M17.3333 21.3334C17.3333 18.572 19.5718 16.3334 22.3333 16.3334H45.6666C48.428 16.3334 50.6666 18.572 50.6666 21.3334V44.6667C50.6666 47.4281 48.428 49.6667 45.6666 49.6667H22.3333C19.5718 49.6667 17.3333 47.4281 17.3333 44.6667V21.3334ZM22.3333 19.6667C21.4128 19.6667 20.6666 20.4129 20.6666 21.3334V44.6667C20.6666 45.3814 21.1165 45.9911 21.7485 46.2279L39.4882 28.4882C40.1391 27.8373 41.1943 27.8373 41.8452 28.4882L47.3333 33.9762V21.3334C47.3333 20.4129 46.5871 19.6667 45.6666 19.6667H22.3333ZM47.3333 38.6903L40.6667 32.0237L26.3571 46.3334H45.6666C46.5871 46.3334 47.3333 45.5872 47.3333 44.6667V38.6903Z" fill="#2D3648"/>
</svg>
