<svg width="90" height="90" viewBox="0 0 90 90" fill="none" xmlns="http://www.w3.org/2000/svg">
<rect width="90" height="90" rx="5" fill="white"/>
<path fill-rule="evenodd" clip-rule="evenodd" d="M35 38.1666C35 35.8654 36.8655 33.9999 39.1667 33.9999C41.4678 33.9999 43.3333 35.8654 43.3333 38.1666C43.3333 40.4678 41.4678 42.3333 39.1667 42.3333C36.8655 42.3333 35 40.4678 35 38.1666ZM39.1667 37.3333C38.7064 37.3333 38.3333 37.7063 38.3333 38.1666C38.3333 38.6268 38.7064 38.9999 39.1667 38.9999C39.6269 38.9999 40 38.6268 40 38.1666C40 37.7063 39.6269 37.3333 39.1667 37.3333Z" fill="#2D3648"/>
<path fill-rule="evenodd" clip-rule="evenodd" d="M28.3333 32.3333C28.3333 29.5718 30.5719 27.3333 33.3333 27.3333H56.6667C59.4281 27.3333 61.6667 29.5718 61.6667 32.3333V55.6666C61.6667 58.428 59.4281 60.6666 56.6667 60.6666H33.3333C30.5719 60.6666 28.3333 58.428 28.3333 55.6666V32.3333ZM33.3333 30.6666C32.4129 30.6666 31.6667 31.4128 31.6667 32.3333V55.6666C31.6667 56.3813 32.1165 56.9909 32.7486 57.2278L50.4883 39.4881C51.1391 38.8372 52.1944 38.8372 52.8453 39.4881L58.3333 44.9761V32.3333C58.3333 31.4128 57.5871 30.6666 56.6667 30.6666H33.3333ZM58.3333 49.6901L51.6668 43.0236L37.3571 57.3333H56.6667C57.5871 57.3333 58.3333 56.5871 58.3333 55.6666V49.6901Z" fill="#2D3648"/>
</svg>
