<svg width="180" height="96" viewBox="0 0 180 96" fill="none" xmlns="http://www.w3.org/2000/svg">
<g filter="url(#filter0_i_157_1522)">
<path d="M31 5.88534C31 2.21866 34.8158 -0.200882 38.1323 1.36283L76.1323 19.2795C77.883 20.1049 79 21.8665 79 23.802V73.892C79 75.884 77.8176 77.686 75.9902 78.4789L37.9902 94.967C34.6884 96.3996 31 93.9794 31 90.3801V5.88534Z" fill="#2264A8"/>
</g>
<path d="M31.104 30.88L23.04 44.032C22.656 44.672 22.224 45.232 21.744 45.712C21.264 46.16 20.8 46.512 20.352 46.768V46.912C20.8 47.168 21.328 47.584 21.936 48.16C22.544 48.704 23.024 49.312 23.376 49.984L31.632 64H21.648L12.192 46.672L21.456 30.88H31.104ZM11.904 30.88V39.712C11.904 40.864 11.792 42.048 11.568 43.264C11.376 44.448 11.072 45.568 10.656 46.624C10.976 47.616 11.264 48.688 11.52 49.84C11.776 50.96 11.904 51.984 11.904 52.912V64H2.928V30.88H11.904ZM15.024 43.792V49.792H9.264V43.792H15.024ZM93.1099 30.208C94.8059 30.24 96.6779 30.352 98.7259 30.544C100.774 30.736 102.758 31.136 104.678 31.744L104.102 37.6C102.694 37.568 100.966 37.536 98.9179 37.504C96.9019 37.472 94.9179 37.456 92.9659 37.456C92.2299 37.456 91.6059 37.488 91.0939 37.552C90.6139 37.584 90.2139 37.68 89.8939 37.84C89.6059 37.968 89.3979 38.176 89.2699 38.464C89.1419 38.72 89.0779 39.088 89.0779 39.568C89.0779 40.336 89.3019 40.928 89.7499 41.344C90.2299 41.728 91.0619 42.128 92.2459 42.544L98.4379 44.848C101.126 45.904 102.998 47.216 104.054 48.784C105.142 50.32 105.686 52.32 105.686 54.784C105.686 56.64 105.462 58.208 105.014 59.488C104.566 60.768 103.83 61.776 102.806 62.512C101.814 63.248 100.486 63.792 98.8219 64.144C97.1899 64.496 95.1579 64.672 92.7259 64.672C91.6059 64.672 89.9579 64.592 87.7819 64.432C85.6379 64.272 83.2059 63.856 80.4859 63.184L81.0139 56.848C82.9339 56.88 84.6299 56.928 86.1019 56.992C87.6059 57.024 88.9019 57.056 89.9899 57.088C91.1099 57.088 91.9899 57.088 92.6299 57.088C93.7179 57.088 94.5499 57.04 95.1259 56.944C95.7019 56.816 96.1019 56.608 96.3259 56.32C96.5499 56 96.6619 55.552 96.6619 54.976C96.6619 54.432 96.5819 54 96.4219 53.68C96.2619 53.36 95.9739 53.088 95.5579 52.864C95.1739 52.64 94.6459 52.416 93.9739 52.192L87.3499 49.552C84.7259 48.464 82.8699 47.168 81.7819 45.664C80.6939 44.16 80.1499 42.192 80.1499 39.76C80.1499 37.84 80.3899 36.272 80.8699 35.056C81.3499 33.84 82.0859 32.88 83.0779 32.176C84.1019 31.472 85.4459 30.976 87.1099 30.688C88.7739 30.368 90.7739 30.208 93.1099 30.208ZM126.404 30.88V64H117.38V30.88H126.404ZM135.956 30.88V37.744H107.78V30.88H135.956ZM148.45 30.88V64H139.522V30.88H148.45ZM161.439 30.736C163.295 30.736 165.183 30.736 167.103 30.736C169.055 30.736 170.959 30.784 172.815 30.88C174.703 30.944 176.431 31.072 177.999 31.264L177.567 37.696H165.183C164.479 37.696 163.935 37.888 163.551 38.272C163.167 38.624 162.975 39.12 162.975 39.76V55.12C162.975 55.76 163.167 56.272 163.551 56.656C163.935 57.008 164.479 57.184 165.183 57.184H177.567L177.999 63.616C176.431 63.776 174.703 63.904 172.815 64C170.959 64.064 169.055 64.096 167.103 64.096C165.183 64.128 163.295 64.144 161.439 64.144C159.231 64.144 157.439 63.488 156.063 62.176C154.687 60.864 153.999 59.152 153.999 57.04V37.84C153.999 35.696 154.687 33.984 156.063 32.704C157.439 31.392 159.231 30.736 161.439 30.736ZM154.863 43.888H175.839V49.984H154.863V43.888Z" fill="black"/>
<path d="M51.7549 30.88C52.4909 30.88 53.1309 31.088 53.6749 31.504C54.2509 31.92 54.6349 32.496 54.8269 33.232L63.8989 64H54.6829L48.8749 41.152C48.7469 40.608 48.6349 40.032 48.5389 39.424C48.4429 38.784 48.3469 38.192 48.2509 37.648H46.9549C46.8909 38.192 46.7949 38.784 46.6669 39.424C46.5709 40.032 46.4589 40.608 46.3309 41.152L40.5229 64H31.3069L40.3789 33.232C40.5709 32.496 40.9389 31.92 41.4829 31.504C42.0589 31.088 42.7149 30.88 43.4509 30.88H51.7549ZM56.3149 49.648V56.128H38.8909V49.648H56.3149ZM75.5123 30.88V64H66.5843V30.88H75.5123Z" fill="white"/>
<defs>
<filter id="filter0_i_157_1522" x="31" y="0.879303" width="53" height="97.5063" filterUnits="userSpaceOnUse" color-interpolation-filters="sRGB">
<feFlood flood-opacity="0" result="BackgroundImageFix"/>
<feBlend mode="normal" in="SourceGraphic" in2="BackgroundImageFix" result="shape"/>
<feColorMatrix in="SourceAlpha" type="matrix" values="0 0 0 0 0 0 0 0 0 0 0 0 0 0 0 0 0 0 127 0" result="hardAlpha"/>
<feOffset dx="5" dy="3"/>
<feGaussianBlur stdDeviation="2.5"/>
<feComposite in2="hardAlpha" operator="arithmetic" k2="-1" k3="1"/>
<feColorMatrix type="matrix" values="0 0 0 0 0 0 0 0 0 0 0 0 0 0 0 0 0 0 0.25 0"/>
<feBlend mode="normal" in2="shape" result="effect1_innerShadow_157_1522"/>
</filter>
</defs>
</svg>
